<?xml version="1.0" encoding="utf-8"?>
<!-- Generator: Adobe Illustrator 16.0.0, SVG Export Plug-In . SVG Version: 6.00 Build 0)  -->
<!DOCTYPE svg PUBLIC "-//W3C//DTD SVG 1.1//EN" "http://www.w3.org/Graphics/SVG/1.1/DTD/svg11.dtd">
<svg version="1.1" id="svg3010" xmlns:svg="http://www.w3.org/2000/svg"
	 xmlns="http://www.w3.org/2000/svg" xmlns:xlink="http://www.w3.org/1999/xlink" x="0px" y="0px" width="443px" height="458px"
	 viewBox="0 0 443 458" enable-background="new 0 0 443 458" xml:space="preserve">
<path id="path3016" fill="#FFFFFF" d="M169.33,71.531c8.762,0.051,17.524,0.034,26.288,0.009c0.419,4.394,0.403,8.814,0.317,13.216
	c-8.909,0.085-17.808-0.026-26.715,0.085C169.253,80.405,169.262,75.969,169.33,71.531z"/>
<path id="path3018" fill="#FFFFFF" d="M155.925,85.048c4.428-0.026,8.865-0.017,13.293-0.206
	c0.008,48.995,0.084,97.988,0.035,146.984c-4.463,0.104-8.926,0.104-13.389,0.009c-0.085-4.386-0.085-8.779-0.026-13.175
	c-4.437-0.17-8.874-0.146-13.311-0.128c-0.146-4.479-0.18-8.968-0.009-13.448c4.429-0.162,8.866-0.111,13.303-0.18
	C155.839,164.955,155.711,125.006,155.925,85.048L155.925,85.048z"/>
<path id="path3020" fill="#FFFFFF" d="M195.986,85.065c4.419-0.06,8.838-0.034,13.259,0.009c0.06,17.712-0.06,35.434,0.128,53.148
	c8.84,0.231,17.679,0.103,26.52,0.146c-0.01,4.42,0,8.84,0.256,13.259c13.303,0.215,26.631-0.317,39.924,0.387
	c-0.052,4.317-0.026,8.633,0.069,12.95c8.855,0.163,17.72,0.06,26.586,0.094c0.061,4.438-0.223,8.9,0.248,13.32
	c4.403,0.386,8.823,0.154,13.233,0.283c-0.068,4.325-0.034,8.651,0.077,12.976c4.359,0.077,8.729,0.111,13.105,0.077
	c0.207,17.036-0.129,34.071,0.344,51.097c-0.43,14.177-0.172,28.354-0.268,42.533c-4.394-0.034-8.787-0.051-13.146,0.488
	c-0.018,13.174-0.026,26.355-0.173,39.528c-4.377,0.137-8.761,0.282-13.131,0.068c-0.497-13.404-0.266-26.827-0.137-40.239
	c4.402,0.043,8.814,0.043,13.225,0.009c0.009-31.153,0.034-62.297,0.051-93.45c-4.402-0.06-8.805-0.051-13.208,0
	c-0.247-4.333,0.034-8.693-0.317-13.018c-4.368-0.841-8.829-0.327-13.241-0.344c-0.095,13.362,0.154,26.724-0.112,40.095
	c-4.359,0.009-8.728,0.009-13.089,0.017c-0.299-17.825,0.01-35.65-0.103-53.475c-8.934-0.051-17.867-0.025-26.792,0
	c0,13.354,0.138,26.707-0.017,40.052c-4.428,0.095-8.849,0.095-13.268,0.008c-0.086-17.807-0.104-35.622,0.112-53.43
	c-8.942-0.042-17.877-0.051-26.819,0.051c-0.095,17.791,0.069,35.58,0,53.372c-4.471,0.129-8.951,0.137-13.422,0.008
	C195.882,165.083,195.907,125.074,195.986,85.065L195.986,85.065z"/>
<path id="path3026" fill="#FFFFFF" d="M102.382,191.851c13.362-0.224,26.732-0.155,40.095-0.043
	c0.093,4.428,0.172,8.848,0.043,13.276c-8.865,0.207-17.73,0.052-26.587,0.121c-0.326,8.821,0.472,17.669-0.128,26.484
	c-4.462,0.515-8.96,0.172-13.43,0.085C102.347,218.462,102.399,205.161,102.382,191.851z"/>
<path id="path3030" fill="#FFFFFF" d="M116.165,231.988c4.291-0.662,8.651-0.411,12.976-0.293c0.094,4.454,0.103,8.917,0.06,13.381
	c4.462,0.024,8.917,0.017,13.381,0.077c0.103,8.882,0,17.765,0.05,26.646c4.402-0.024,8.814-0.016,13.225,0.044
	c-0.061,8.908,0.575,17.885-0.335,26.749c-4.343,0.396-8.693,0.086-13.027,0.018c-0.137-8.806-0.12-17.61-0.197-26.415
	c-4.413-0.025-8.822-0.104-13.233-0.283c-0.147-8.772,0.284-17.559-0.515-26.303c-4.266,0.017-8.539-0.062-12.796-0.284
	C115.735,240.88,115.152,236.366,116.165,231.988L116.165,231.988z"/>
<path id="path3038" fill="#FFFFFF" d="M156.131,298.652c4.36-0.343,8.746-0.137,13.123-0.111c0.119,8.863,0.008,17.729,0.034,26.587
	c4.445-0.017,8.908-0.017,13.361,0.137c0.086,8.866-0.078,17.74,0.051,26.604c35.539,0.087,71.076,0.069,106.612,0.053
	c0.139-8.875-0.033-17.749,0.061-26.631c4.549-0.06,9.097-0.119,13.645,0.138c0.723,13.302-0.583,26.613-0.205,39.933
	c-22.537,0.539-45.072,0.344-67.608,0.377c-22.013,0.024-44.026,0-66.031-0.317c-0.18-13.312-0.085-26.621-0.282-39.924
	c-4.344-0.009-8.686-0.078-13.028-0.162C155.934,316.444,155.221,307.492,156.131,298.652L156.131,298.652z"/>
</svg>
