<?xml version="1.0" encoding="utf-8"?>
<!-- Generator: Adobe Illustrator 16.0.0, SVG Export Plug-In . SVG Version: 6.00 Build 0)  -->
<!DOCTYPE svg PUBLIC "-//W3C//DTD SVG 1.1//EN" "http://www.w3.org/Graphics/SVG/1.1/DTD/svg11.dtd">
<svg version="1.1" id="svg3010" xmlns:svg="http://www.w3.org/2000/svg"
	 xmlns="http://www.w3.org/2000/svg" xmlns:xlink="http://www.w3.org/1999/xlink" x="0px" y="0px" width="443px" height="458px"
	 viewBox="248.5 0 443 458" enable-background="new 248.5 0 443 458" xml:space="preserve">
<g>
	<path fill="#FFFFFF" d="M400.923,206.41c0,0,0-47.736,0-64.72c0-16.983-15.147-20.196-15.147-20.196s-40.852,0-66.557,0
		c-25.704,0-22.949,25.245-22.949,25.245s-0.086,37.639-0.086,58.294s19.364,22.491,19.364,22.491s38.098,0,61.966,0
		S400.923,206.41,400.923,206.41z M373.446,220.078c-20.517,0-53.263,0-53.263,0s-16.645-1.578-16.645-19.332
		s0.074-50.107,0.074-50.107s-2.367-21.7,19.727-21.7c22.095,0,57.208,0,57.208,0s13.021,2.762,13.021,17.36
		c0,14.598,0,55.63,0,55.63S393.962,220.078,373.446,220.078z"/>
	<path fill="#FFFFFF" d="M377.514,230.524l-62.249-0.014c-7.638-0.724-22.081-6.98-22.081-25.478c0-19.908,0.08-55.589,0.085-58.155
		c-0.145-1.636-0.842-12.832,6.261-20.752c4.542-5.065,11.167-7.633,19.689-7.633h66.871l0.309,0.065
		c6.061,1.286,17.524,7.775,17.524,23.131v64.72c0.008,0.338,0.135,9.897-6.759,16.943
		C392.507,228.111,385.896,230.524,377.514,230.524z M315.705,224.524h61.809c6.708,0,11.876-1.806,15.361-5.368
		c5.149-5.262,5.05-12.608,5.049-12.681l-0.001-64.785c0-13.256-10.603-16.687-12.51-17.196h-66.194
		c-6.728,0-11.84,1.887-15.196,5.609c-5.731,6.357-4.781,16.219-4.771,16.318l0.017,0.325c0,0-0.086,37.635-0.086,58.288
		C299.184,222.137,314.056,224.334,315.705,224.524z M373.446,223.078l-53.546-0.013c-6.696-0.635-19.361-6.116-19.361-22.319
		c0-17.066,0.068-47.62,0.073-49.97c-0.131-1.519-0.697-11.238,5.489-18.136c3.988-4.447,9.788-6.701,17.238-6.701h57.522
		l0.309,0.065c5.325,1.13,15.397,6.825,15.397,20.294v55.63c0.007,0.289,0.118,8.677-5.931,14.858
		C386.553,220.961,380.769,223.078,373.446,223.078z M320.343,217.078h53.104c5.648,0,9.989-1.51,12.903-4.487
		c4.234-4.328,4.221-10.535,4.22-10.597l-0.001-55.695c0-10.971-8.69-13.894-10.389-14.36h-56.84c-5.673,0-9.97,1.583-12.771,4.707
		c-4.739,5.284-3.982,13.585-3.974,13.667l0.019,0.166l-0.001,0.167c0,0-0.073,32.348-0.073,50.1
		C306.539,215.02,318.873,216.905,320.343,217.078z"/>
</g>
<g>
	<path fill="#FFFFFF" d="M522.92,206.41c0,0,0-47.736,0-64.72c0-16.983-15.146-20.196-15.146-20.196s-40.852,0-66.557,0
		c-25.704,0-22.95,25.245-22.95,25.245s-0.086,37.639-0.086,58.294s19.364,22.491,19.364,22.491s38.098,0,61.966,0
		S522.92,206.41,522.92,206.41z M495.443,220.078c-20.516,0-53.263,0-53.263,0s-16.644-1.578-16.644-19.332
		s0.073-50.107,0.073-50.107s-2.367-21.7,19.727-21.7c22.095,0,57.208,0,57.208,0s13.021,2.762,13.021,17.36
		c0,14.598,0,55.63,0,55.63S515.959,220.078,495.443,220.078z"/>
	<path fill="#FFFFFF" d="M499.511,230.524l-62.249-0.014c-7.638-0.724-22.081-6.98-22.081-25.478c0-19.908,0.08-55.589,0.086-58.155
		c-0.146-1.636-0.843-12.832,6.261-20.752c4.542-5.065,11.167-7.633,19.689-7.633h66.871l0.309,0.065
		c6.061,1.286,17.523,7.775,17.523,23.131v64.72c0.008,0.338,0.135,9.897-6.759,16.943
		C514.504,228.111,507.893,230.524,499.511,230.524z M437.702,224.524h61.809c6.708,0,11.876-1.806,15.361-5.368
		c5.149-5.262,5.05-12.608,5.049-12.681l-0.001-64.785c0-6.066-2.156-10.807-6.407-14.093c-2.64-2.04-5.291-2.879-6.107-3.104
		h-66.188c-6.745,0-11.867,1.897-15.223,5.639c-5.748,6.409-4.756,16.183-4.745,16.281l0.018,0.332c0,0-0.086,37.635-0.086,58.288
		C421.181,222.137,436.053,224.334,437.702,224.524z M495.443,223.078l-53.546-0.013c-6.696-0.635-19.36-6.116-19.36-22.319
		c0-17.066,0.067-47.62,0.073-49.97c-0.132-1.519-0.697-11.238,5.489-18.136c3.987-4.446,9.787-6.701,17.237-6.701h57.522
		l0.309,0.065c5.325,1.13,15.397,6.825,15.397,20.294v55.63c0.007,0.289,0.118,8.677-5.931,14.858
		C508.55,220.961,502.766,223.078,495.443,223.078z M442.34,217.078h53.104c5.648,0,9.989-1.51,12.903-4.487
		c4.234-4.328,4.221-10.535,4.22-10.597l-0.001-55.695c0-10.971-8.69-13.894-10.389-14.36h-56.84c-5.673,0-9.97,1.583-12.771,4.707
		c-4.739,5.284-3.982,13.585-3.974,13.667l0.018,0.332c0,0-0.073,32.348-0.073,50.1C428.537,215.02,440.87,216.905,442.34,217.078z"
		/>
</g>
<g>
	<path fill="#FFFFFF" d="M643.522,206.41c0,0,0-47.736,0-64.72c0-16.983-15.147-20.196-15.147-20.196s-40.852,0-66.557,0
		c-25.703,0-22.949,25.245-22.949,25.245s-0.086,37.639-0.086,58.294s19.364,22.491,19.364,22.491s38.098,0,61.966,0
		S643.522,206.41,643.522,206.41z M616.046,220.078c-20.517,0-53.263,0-53.263,0s-16.645-1.578-16.645-19.332
		s0.074-50.107,0.074-50.107s-2.367-21.7,19.727-21.7c22.095,0,57.208,0,57.208,0s13.021,2.762,13.021,17.36
		c0,14.598,0,55.63,0,55.63S636.562,220.078,616.046,220.078z"/>
	<path fill="#FFFFFF" d="M620.113,230.524l-62.249-0.014c-7.638-0.724-22.081-6.98-22.081-25.478c0-19.908,0.08-55.589,0.086-58.155
		c-0.146-1.636-0.843-12.832,6.261-20.752c4.542-5.065,11.166-7.633,19.688-7.633h66.871l0.308,0.065
		c6.062,1.286,17.525,7.775,17.525,23.131v64.72c0.008,0.338,0.135,9.897-6.759,16.943
		C635.106,228.111,628.495,230.524,620.113,230.524z M558.305,224.524h61.809c6.708,0,11.876-1.806,15.361-5.368
		c5.149-5.262,5.05-12.608,5.049-12.681l-0.001-64.785c0-13.256-10.603-16.687-12.51-17.196h-66.194
		c-6.745,0-11.866,1.897-15.222,5.639c-5.748,6.409-4.756,16.183-4.745,16.281l0.018,0.332c0,0-0.086,37.635-0.086,58.288
		C541.783,222.137,556.655,224.334,558.305,224.524z M616.046,223.078l-53.546-0.013c-6.696-0.635-19.361-6.116-19.361-22.319
		c0-17.066,0.068-47.62,0.074-49.97c-0.132-1.519-0.697-11.238,5.489-18.136c3.987-4.446,9.787-6.701,17.237-6.701h57.522
		l0.309,0.065c5.325,1.13,15.397,6.825,15.397,20.294v55.63c0.007,0.289,0.118,8.677-5.931,14.858
		C629.152,220.961,623.368,223.078,616.046,223.078z M562.942,217.078h53.104c5.648,0,9.989-1.51,12.903-4.487
		c4.234-4.328,4.221-10.535,4.22-10.597l-0.001-55.695c0-10.971-8.69-13.894-10.389-14.36h-56.84c-5.673,0-9.97,1.583-12.771,4.707
		c-4.739,5.284-3.982,13.585-3.974,13.667l0.018,0.332c0,0-0.074,32.348-0.074,50.1C549.139,215.02,561.473,216.905,562.942,217.078
		z"/>
</g>
<g>
	<path fill="#FFFFFF" d="M400.923,325.916c0,0,0-47.736,0-64.721c0-16.982-15.147-20.195-15.147-20.195s-40.852,0-66.557,0
		c-25.704,0-22.949,25.244-22.949,25.244s-0.086,37.64-0.086,58.295s19.364,22.491,19.364,22.491s38.098,0,61.966,0
		S400.923,325.916,400.923,325.916z M373.446,339.584c-20.517,0-53.263,0-53.263,0s-16.645-1.578-16.645-19.332
		s0.074-50.107,0.074-50.107s-2.367-21.699,19.727-21.699c22.095,0,57.208,0,57.208,0s13.021,2.762,13.021,17.359
		c0,14.599,0,55.631,0,55.631S393.962,339.584,373.446,339.584z"/>
	<path fill="#FFFFFF" d="M377.514,350.03l-62.249-0.014c-7.638-0.724-22.081-6.98-22.081-25.478c0-19.907,0.08-55.59,0.085-58.155
		c-0.145-1.636-0.842-12.831,6.26-20.751c4.542-5.064,11.167-7.633,19.689-7.633h66.871l0.308,0.065
		c6.062,1.285,17.525,7.774,17.525,23.13v64.721c0.008,0.338,0.135,9.897-6.759,16.942
		C392.508,347.617,385.896,350.03,377.514,350.03z M315.705,344.03h61.809c6.68,0,11.834-1.791,15.318-5.324
		c5.135-5.205,5.093-12.662,5.091-12.736v-64.774c0-6.065-2.156-10.807-6.408-14.092c-2.64-2.04-5.291-2.879-6.107-3.104h-66.188
		c-6.745,0-11.867,1.897-15.222,5.639c-5.747,6.408-4.755,16.182-4.745,16.28l0.018,0.165l0,0.167
		c0,0.001-0.086,37.636-0.086,58.288C299.184,341.643,314.056,343.84,315.705,344.03z M373.446,342.584L319.9,342.57
		c-6.696-0.635-19.361-6.116-19.361-22.318c0-17.066,0.068-47.62,0.073-49.971c-0.131-1.518-0.697-11.237,5.489-18.135
		c3.988-4.446,9.788-6.701,17.238-6.701h57.522l0.308,0.065c5.326,1.13,15.398,6.825,15.398,20.294v55.631
		c0.007,0.289,0.118,8.677-5.931,14.857C386.553,340.468,380.769,342.584,373.446,342.584z M320.343,336.584h53.104
		c5.648,0,9.989-1.51,12.903-4.487c4.234-4.327,4.221-10.534,4.22-10.596l-0.001-55.696c0-10.972-8.69-13.894-10.389-14.359h-56.84
		c-5.673,0-9.971,1.584-12.771,4.707c-4.739,5.284-3.982,13.585-3.974,13.667l0.019,0.165l-0.001,0.167
		c0,0.001-0.073,32.35-0.073,50.101C306.539,334.524,318.873,336.41,320.343,336.584z"/>
</g>
<g>
	<path fill="#FFFFFF" d="M522.92,325.916c0,0,0-47.736,0-64.721c0-16.982-15.146-20.195-15.146-20.195s-40.852,0-66.557,0
		c-25.704,0-22.95,25.244-22.95,25.244s-0.086,37.64-0.086,58.295s19.364,22.491,19.364,22.491s38.098,0,61.966,0
		S522.92,325.916,522.92,325.916z M495.443,339.584c-20.516,0-53.263,0-53.263,0s-16.644-1.578-16.644-19.332
		s0.073-50.107,0.073-50.107s-2.367-21.699,19.727-21.699c22.095,0,57.208,0,57.208,0s13.021,2.762,13.021,17.359
		c0,14.599,0,55.631,0,55.631S515.959,339.584,495.443,339.584z"/>
	<path fill="#FFFFFF" d="M499.511,350.03l-62.249-0.014c-7.638-0.724-22.081-6.98-22.081-25.478c0-19.907,0.08-55.59,0.086-58.155
		c-0.146-1.636-0.843-12.831,6.261-20.751c4.542-5.064,11.167-7.633,19.689-7.633h66.871l0.308,0.065
		c6.062,1.285,17.524,7.774,17.524,23.13v64.721c0.008,0.338,0.135,9.897-6.759,16.942
		C514.505,347.617,507.894,350.03,499.511,350.03z M437.702,344.03h61.809c6.68,0,11.834-1.791,15.318-5.324
		c5.135-5.205,5.093-12.662,5.091-12.736v-64.774c0-13.256-10.602-16.686-12.509-17.195h-66.194c-6.728,0-11.841,1.888-15.196,5.609
		c-5.731,6.356-4.781,16.218-4.771,16.317l0.017,0.324c0,0.001-0.086,37.636-0.086,58.288
		C421.181,341.643,436.053,343.84,437.702,344.03z M495.443,342.584l-53.546-0.014c-6.696-0.635-19.36-6.116-19.36-22.318
		c0-17.066,0.067-47.62,0.073-49.971c-0.132-1.518-0.697-11.237,5.489-18.135c3.987-4.446,9.787-6.701,17.237-6.701h57.522
		l0.308,0.065c5.326,1.13,15.398,6.825,15.398,20.294v55.631c0.007,0.289,0.118,8.677-5.931,14.857
		C508.55,340.468,502.766,342.584,495.443,342.584z M442.346,336.584h53.098c5.648,0,9.989-1.51,12.903-4.487
		c4.234-4.327,4.221-10.534,4.22-10.596l-0.001-55.696c0-10.972-8.69-13.894-10.389-14.359h-56.84
		c-5.656,0-9.944,1.574-12.745,4.679c-4.8,5.318-4.007,13.621-3.998,13.704l0.017,0.323c0,0.001-0.073,32.35-0.073,50.101
		C428.537,334.362,440.417,336.354,442.346,336.584z"/>
</g>
<g>
	<path fill="#FFFFFF" d="M643.522,325.916c0,0,0-47.736,0-64.721c0-16.982-15.147-20.195-15.147-20.195s-40.852,0-66.557,0
		c-25.703,0-22.949,25.244-22.949,25.244s-0.086,37.64-0.086,58.295s19.364,22.491,19.364,22.491s38.098,0,61.966,0
		S643.522,325.916,643.522,325.916z M616.046,339.584c-20.517,0-53.263,0-53.263,0s-16.645-1.578-16.645-19.332
		s0.074-50.107,0.074-50.107s-2.367-21.699,19.727-21.699c22.095,0,57.208,0,57.208,0s13.021,2.762,13.021,17.359
		c0,14.599,0,55.631,0,55.631S636.562,339.584,616.046,339.584z"/>
	<path fill="#FFFFFF" d="M620.113,350.03l-62.249-0.014c-7.638-0.724-22.081-6.98-22.081-25.478c0-19.907,0.08-55.59,0.086-58.155
		c-0.146-1.636-0.843-12.831,6.261-20.751c4.542-5.064,11.166-7.633,19.688-7.633h66.871l0.308,0.065
		c6.062,1.285,17.525,7.774,17.525,23.13v64.721c0.008,0.338,0.135,9.897-6.759,16.942
		C635.107,347.617,628.496,350.03,620.113,350.03z M558.305,344.03h61.809c6.68,0,11.834-1.791,15.318-5.324
		c5.135-5.205,5.093-12.662,5.091-12.736v-64.774c0-6.065-2.156-10.807-6.408-14.092c-2.64-2.04-5.291-2.879-6.107-3.104h-66.188
		c-6.728,0-11.84,1.888-15.195,5.609c-5.731,6.356-4.781,16.218-4.771,16.317l0.017,0.324c0,0.001-0.086,37.636-0.086,58.288
		C541.783,341.643,556.655,343.84,558.305,344.03z M616.046,342.584L562.5,342.57c-6.696-0.635-19.361-6.116-19.361-22.318
		c0-17.066,0.068-47.62,0.074-49.971c-0.132-1.518-0.697-11.237,5.489-18.135c3.987-4.446,9.787-6.701,17.237-6.701h57.522
		l0.308,0.065c5.326,1.13,15.398,6.825,15.398,20.294v55.631c0.007,0.289,0.118,8.677-5.931,14.857
		C629.152,340.468,623.368,342.584,616.046,342.584z M562.942,336.584h53.104c5.648,0,9.989-1.51,12.903-4.487
		c4.234-4.327,4.221-10.534,4.22-10.596l-0.001-55.696c0-10.972-8.69-13.894-10.389-14.359h-56.84
		c-5.656,0-9.944,1.574-12.745,4.679c-4.8,5.318-4.007,13.621-3.998,13.704l0.017,0.323c0,0.001-0.074,32.35-0.074,50.101
		C549.139,334.524,561.473,336.41,562.942,336.584z"/>
</g>
<g>
	<path fill="#FFFFFF" d="M368.957,184.614c-0.868,2.831-2.147,5.182-3.839,7.054l5.668,5.338l-5.379,5.613l-5.93-5.627
		c-1.811,1.099-3.375,1.872-4.692,2.32c-2.213,0.74-4.861,1.109-7.945,1.109c-6.437,0-11.756-1.92-15.957-5.761
		c-5.095-4.621-7.643-11.409-7.643-20.363c0-9.021,2.612-15.842,7.837-20.464c4.265-3.772,9.567-5.66,15.909-5.66
		c6.386,0,11.744,1.999,16.076,5.995c5.001,4.622,7.502,11.086,7.502,19.393C370.564,177.96,370.029,181.645,368.957,184.614z
		 M350.24,191.244c0.604-0.156,1.374-0.436,2.312-0.839l-4.997-4.753l5.3-5.533l5.018,4.725c0.78-1.606,1.327-3.014,1.64-4.219
		c0.491-1.809,0.736-3.918,0.736-6.329c0-5.537-1.134-9.817-3.399-12.843c-2.267-3.024-5.576-4.537-9.931-4.537
		c-4.086,0-7.346,1.451-9.779,4.354c-2.435,2.903-3.65,7.246-3.65,13.028c0,6.766,1.741,11.611,5.227,14.536
		c2.255,1.898,4.958,2.847,8.107,2.847C348.007,191.681,349.146,191.535,350.24,191.244z"/>
</g>
<g>
	<path fill="#FFFFFF" d="M450.267,151.682l6.518,28.271l1.42,7.867l1.424-7.706l5.576-28.432h10.885l5.866,28.267l1.502,7.871
		l1.524-7.565l6.581-28.572h10.503l-13.889,49.367h-9.878l-5.961-28.87l-1.742-9.545l-1.741,9.545l-5.962,28.87h-9.58
		l-13.998-49.367H450.267z"/>
</g>
<g>
	<path fill="#FFFFFF" d="M608.552,159.423h-26.124v10.483h23.98v8.574h-23.98v12.693h27.33v8.875h-37.411v-49.367h36.205V159.423z"
		/>
</g>
<g>
	<path fill="#FFFFFF" d="M599.972,269.247c3.464,1.139,6.269,3.227,8.414,6.263c1.721,2.457,2.894,5.113,3.519,7.972
		c0.626,2.858,0.939,5.582,0.939,8.172c0,6.564-1.319,12.124-3.955,16.679c-3.576,6.141-9.095,9.211-16.559,9.211h-21.285v-49.368
		h21.285C595.392,268.22,597.938,268.577,599.972,269.247z M581.06,276.749v32.22h9.526c4.876,0,8.274-2.4,10.197-7.201
		c1.052-2.634,1.577-5.771,1.577-9.411c0-5.023-0.788-8.881-2.365-11.571c-1.576-2.69-4.713-4.036-9.409-4.036H581.06z"/>
</g>
<g>
	<path fill="#FFFFFF" d="M458.486,302.304c0.319,2.256,0.946,3.941,1.881,5.058c1.71,2.032,4.639,3.048,8.788,3.048
		c2.485,0,4.503-0.269,6.053-0.804c2.941-1.027,4.412-2.937,4.412-5.728c0-1.63-0.721-2.892-2.161-3.785
		c-1.441-0.87-3.726-1.641-6.854-2.311l-5.345-1.172c-5.253-1.161-8.861-2.423-10.826-3.785c-3.327-2.277-4.99-5.839-4.99-10.684
		c0-4.421,1.627-8.094,4.882-11.02c3.255-2.925,8.036-4.387,14.342-4.387c5.267,0,9.759,1.379,13.478,4.136
		c3.718,2.758,5.667,6.761,5.849,12.007h-9.914c-0.183-2.969-1.511-5.079-3.982-6.33c-1.648-0.825-3.697-1.239-6.146-1.239
		c-2.724,0-4.898,0.536-6.524,1.608c-1.625,1.071-2.438,2.567-2.438,4.487c0,1.765,0.802,3.081,2.404,3.952
		c1.029,0.581,3.216,1.262,6.559,2.043l8.663,2.043c3.798,0.894,6.644,2.088,8.539,3.584c2.942,2.322,4.414,5.683,4.414,10.081
		c0,4.511-1.744,8.256-5.23,11.236c-3.487,2.981-8.413,4.472-14.776,4.472c-6.5,0-11.611-1.468-15.336-4.404
		c-3.724-2.936-5.585-6.972-5.585-12.107H458.486z"/>
</g>
<g>
	<path fill="#FFFFFF" d="M341.199,268.175h11.672l17.467,49.368h-11.187l-3.258-10.148h-18.18l-3.347,10.148h-10.791
		L341.199,268.175z M340.52,298.888h12.644l-6.236-19.426L340.52,298.888z"/>
</g>
</svg>
