<?xml version="1.0" encoding="utf-8"?>
<!-- Generator: Adobe Illustrator 16.0.0, SVG Export Plug-In . SVG Version: 6.00 Build 0)  -->
<!DOCTYPE svg PUBLIC "-//W3C//DTD SVG 1.1//EN" "http://www.w3.org/Graphics/SVG/1.1/DTD/svg11.dtd">
<svg version="1.1" id="svg3010" xmlns:svg="http://www.w3.org/2000/svg"
	 xmlns="http://www.w3.org/2000/svg" xmlns:xlink="http://www.w3.org/1999/xlink" x="0px" y="0px" width="443px" height="458px"
	 viewBox="248.5 0 443 458" enable-background="new 248.5 0 443 458" xml:space="preserve">
<g id="GBLirr.tif">
	<g>
		<path fill-rule="evenodd" clip-rule="evenodd" fill="#FCFCFC" d="M630.574,109.742c-1.454,4.781-2.451,9.761-4.442,14.308
			c-8.097,18.494-26.778,29.835-47.2,29.037c-20.413-0.797-38.554-13.744-44.681-33.131c-4.384-13.873-16.078-25.638-35.458-24.892
			c-15.673,0.604-28.638,9.233-32.479,23.824c-1.365,5.191-1.005,10.852-1.29,16.305c-0.16,3.043-0.028,6.102-0.028,9.568
			c7.479,0,14.695-0.225,21.892,0.073c5.446,0.225,11.01,0.523,16.27,1.813c22.341,5.479,38.231,25.676,38.583,48.623
			c0.136,8.876,0.022,17.758,0.022,26.927c-25.72,0-51.197,0-77.068,0c0-25.775,0-51.396,0-77.632c-5.612,0-10.84,0-16.068,0
			l0.072,0.073c0.438-9.503-0.339-19.255,1.556-28.458c4.487-21.812,24.586-37.049,46.927-37.457
			c13.015-0.237,25.038,2.239,35.465,10.474c7.896,6.236,13.155,14.245,16.313,23.76c7.414,22.328,33.137,31.071,51.633,17.475
			c8.843-6.499,13.538-15.325,13.555-26.442c0.012-8.224,0.002-16.447,0.002-25.215c5.563,0,10.995,0,16.426,0
			C630.574,89.097,630.574,99.419,630.574,109.742z"/>
		<path fill-rule="evenodd" clip-rule="evenodd" fill="#FCFCFC" d="M541.573,238.371c0.064,0.925,0.161,1.665,0.161,2.403
			c-0.002,17.67,0.277,35.345-0.082,53.006c-0.791,39.031-31.739,74.151-70.331,80.228c-46.469,7.316-88.485-21.511-98.097-67.439
			c-0.96-4.587-1.471-9.346-1.52-14.03c-0.179-17.229-0.076-34.462-0.073-51.692c0-0.745,0.063-1.49,0.107-2.475
			C428.402,238.371,484.895,238.371,541.573,238.371z"/>
		<path fill-rule="evenodd" clip-rule="evenodd" fill="#FCFCFC" d="M448.626,144.563c0.021,25.575,0.04,51.149,0.052,76.725
			c0,0.207-0.105,0.413-0.243,0.911c-25.417,0-50.91,0-76.808,0c0-4.671-0.182-9.251,0.039-13.812
			c0.401-8.299-0.116-16.864,1.801-24.824c5.554-23.042,26.166-38.584,49.885-38.789c8.449-0.073,16.9-0.091,25.348-0.137
			C448.698,144.637,448.626,144.563,448.626,144.563z"/>
		<path fill-rule="evenodd" clip-rule="evenodd" fill="#FCFCFC" d="M537.258,381.32c-1.297,1.376-2.072,2.199-2.847,3.021
			c-0.656-0.898-1.806-1.783-1.833-2.7c-0.027-0.95,1.032-1.933,1.616-2.901C535.037,379.45,535.881,380.161,537.258,381.32z"/>
	</g>
</g>
</svg>
